<svg xmlns="http://www.w3.org/2000/svg" aria-hidden="true" style="position:absolute;width:0;height:0;overflow:hidden">
  <defs>
    <symbol id="downloads" viewBox="0 0 32 32">
      <path d="M14.912 23.925c.277.309.672.48 1.088.48s.811-.181 1.088-.48l6.539-7.243c.384-.427.491-1.045.256-1.579s-.757-.875-1.344-.875h-3.083v-3.893c0-.811-.661-1.472-1.472-1.472h-3.968c-.811 0-1.472.661-1.472 1.472v3.893H9.461c-.576 0-1.109.341-1.344.875s-.139 1.152.256 1.579l6.539 7.243zM14.016 7.093h3.968c.811 0 1.472-.661 1.472-1.472V4.288c0-.811-.661-1.472-1.472-1.472h-3.968c-.811 0-1.472.661-1.472 1.472v1.333c0 .811.661 1.472 1.472 1.472zM28.064 26.176H3.936c-.832 0-1.504.672-1.504 1.504s.672 1.504 1.504 1.504h24.139c.832 0 1.504-.672 1.504-1.504a1.519 1.519 0 0 0-1.515-1.504z"/>
    </symbol>
    <symbol id="like" viewBox="0 0 32 32">
      <path d="M30.443 14.592c0-1.6-1.312-2.912-2.912-2.912h-8.608l1.461-5.227a2.91 2.91 0 0 0-2.016-3.584 2.91 2.91 0 0 0-3.584 2.016l-2.741 6.805H9.398v17.568h13.28c1.6 0 2.912-1.312 2.912-2.912 0-.427-.096-.832-.267-1.205a2.908 2.908 0 0 0 1.888-2.709c0-.427-.096-.832-.267-1.205a2.908 2.908 0 0 0 1.888-2.709c0-.427-.096-.832-.267-1.205 1.088-.427 1.877-1.483 1.877-2.72zM3.499 29.248h3.627V11.68H3.499a1.941 1.941 0 0 0-1.941 1.941v13.685c0 1.067.875 1.941 1.941 1.941z"/>
    </symbol>
    <symbol id="review" viewBox="0 0 32 32">
      <path d="M28.555 6.496C25.814 2.891 21.088.523 15.723.523 7.232.523.352 6.464.352 13.803c0 2.987 1.152 5.749 3.083 7.968a14.117 14.117 0 0 0 1.675 1.824v7.125l.555-.437v1.12l5.557-4.373c1.589.48 3.285.747 5.056.747 8.491 0 15.371-5.952 15.371-13.291 0-2.997-1.152-5.76-3.093-7.989z"/>
    </symbol>
    <symbol id="search" viewBox="0 0 32 32">
      <path d="m30.987 29.269-9.163-9.163c3.819-4.683 3.541-11.595-.821-15.957A11.844 11.844 0 0 0 12.576.661C9.387.65 6.4 1.898 4.149 4.149c-4.651 4.651-4.651 12.213 0 16.864a11.844 11.844 0 0 0 8.427 3.488c2.773 0 5.408-.939 7.531-2.677l9.163 9.163c.235.235.544.352.864.352s.619-.117.864-.352a1.232 1.232 0 0 0-.011-1.717zm-25.12-9.984c-3.701-3.701-3.701-9.717 0-13.419 1.792-1.792 4.171-2.773 6.709-2.773s4.917.992 6.709 2.784c3.701 3.701 3.701 9.717 0 13.419a9.424 9.424 0 0 1-6.709 2.784 9.479 9.479 0 0 1-6.709-2.795z"/>
      <path d="M8.277 5.963c-.608.277-.875 1.003-.597 1.611s1.003.875 1.611.597c.043-.021 3.776-1.685 7.275 1.515.235.213.533.32.821.32.331 0 .661-.128.896-.395a1.214 1.214 0 0 0-.075-1.717c-4.661-4.277-9.717-2.027-9.931-1.931z"/>
    </symbol>
    <symbol id="views" viewBox="0 0 32 32">
      <path d="M30.432 14.315C28.021 11.35 22.475 5.526 16 5.526S3.979 11.35 1.568 14.315c-.8.981-.8 2.389 0 3.371C3.979 20.651 9.525 26.475 16 26.475s12.021-5.824 14.432-8.789c.8-.981.8-2.389 0-3.371zM16 23.019A7.018 7.018 0 0 1 8.981 16 7.018 7.018 0 0 1 16 8.981 7.018 7.018 0 0 1 23.019 16 7.01 7.01 0 0 1 16 23.019z"/>
      <path d="M20.971 16a4.97 4.97 0 1 1-9.942 0 4.97 4.97 0 0 1 9.942 0z"/>
    </symbol>
  </defs>
</svg>
